<?xml version="1.0" encoding="UTF-8" standalone="no"?><svg xmlns="http://www.w3.org/2000/svg" xmlns:xlink="http://www.w3.org/1999/xlink" contentScriptType="application/ecmascript" contentStyleType="text/css" height="1052px" preserveAspectRatio="none" style="width:526px;height:1052px;" version="1.1" viewBox="0 0 526 1052" width="526px" zoomAndPan="magnify"><defs><filter height="300%" id="f4krfeu53d4wc" width="300%" x="-1" y="-1"><feGaussianBlur result="blurOut" stdDeviation="4.0"/><feColorMatrix in="blurOut" result="blurOut2" type="matrix" values="0 0 0 0 0 0 0 0 0 0 0 0 0 0 0 0 0 0 .4 0"/><feOffset dx="8.0" dy="8.0" in="blurOut2" result="blurOut3"/><feBlend in="SourceGraphic" in2="blurOut3" mode="normal"/></filter></defs><g><!--MD5=[9563755d011c5cec7ec66dc53565a59e]
class Board--><rect codeLine="10" fill="#FEFECE" filter="url(#f4krfeu53d4wc)" height="199.6406" id="Board" style="stroke:#A80036;stroke-width:3.0;" width="164" x="70" y="14"/><ellipse cx="114.4" cy="46" fill="#ADD1B2" rx="22" ry="22" style="stroke:#A80036;stroke-width:2.0;"/><path d="M119.3463,58.2861 Q118.1842,58.8838 116.9059,59.1826 Q115.6275,59.4814 114.2164,59.4814 Q109.2027,59.4814 106.5631,56.1777 Q103.9234,52.874 103.9234,46.6318 Q103.9234,40.373 106.5631,37.0693 Q109.2027,33.7656 114.2164,33.7656 Q115.6275,33.7656 116.9225,34.0645 Q118.2174,34.3633 119.3463,34.9609 L119.3463,40.4063 Q118.0846,39.2441 116.8976,38.7046 Q115.7105,38.165 114.4488,38.165 Q111.7594,38.165 110.3897,40.2983 Q109.0201,42.4316 109.0201,46.6318 Q109.0201,50.8154 110.3897,52.9487 Q111.7594,55.082 114.4488,55.082 Q115.7105,55.082 116.8976,54.5425 Q118.0846,54.0029 119.3463,52.8408 Z " fill="#000000"/><text fill="#000000" font-family="sans-serif" font-size="24" lengthAdjust="spacing" textLength="68" x="145.6" y="55.0703">Board</text><line style="stroke:#A80036;stroke-width:3.0;" x1="72" x2="232" y1="78" y2="78"/><text fill="#000000" font-family="sans-serif" font-size="22" lengthAdjust="spacing" textLength="140" x="82" y="107.2695">name : String</text><line style="stroke:#A80036;stroke-width:3.0;" x1="72" x2="232" y1="119.9102" y2="119.9102"/><text fill="#000000" font-family="sans-serif" font-size="22" lengthAdjust="spacing" textLength="82" x="82" y="149.1797">create()</text><text fill="#000000" font-family="sans-serif" font-size="22" lengthAdjust="spacing" textLength="90" x="82" y="175.0898">update()</text><text fill="#000000" font-family="sans-serif" font-size="22" lengthAdjust="spacing" textLength="80" x="82" y="201">delete()</text><!--MD5=[3fd616f346a44cd59a91eb10b19e157c]
class User--><rect codeLine="17" fill="#FEFECE" filter="url(#f4krfeu53d4wc)" height="225.5508" id="User" style="stroke:#A80036;stroke-width:3.0;" width="164" x="14" y="800"/><ellipse cx="65.6" cy="832" fill="#ADD1B2" rx="22" ry="22" style="stroke:#A80036;stroke-width:2.0;"/><path d="M70.5463,844.2861 Q69.3842,844.8838 68.1059,845.1826 Q66.8275,845.4814 65.4164,845.4814 Q60.4027,845.4814 57.7631,842.1777 Q55.1234,838.874 55.1234,832.6318 Q55.1234,826.373 57.7631,823.0693 Q60.4027,819.7656 65.4164,819.7656 Q66.8275,819.7656 68.1225,820.0645 Q69.4174,820.3633 70.5463,820.9609 L70.5463,826.4063 Q69.2846,825.2441 68.0976,824.7046 Q66.9105,824.165 65.6488,824.165 Q62.9594,824.165 61.5897,826.2983 Q60.2201,828.4316 60.2201,832.6318 Q60.2201,836.8154 61.5897,838.9487 Q62.9594,841.082 65.6488,841.082 Q66.9105,841.082 68.0976,840.5425 Q69.2846,840.0029 70.5463,838.8408 Z " fill="#000000"/><text fill="#000000" font-family="sans-serif" font-size="24" lengthAdjust="spacing" textLength="52" x="98.4" y="841.0703">User</text><line style="stroke:#A80036;stroke-width:3.0;" x1="16" x2="176" y1="864" y2="864"/><text fill="#000000" font-family="sans-serif" font-size="22" lengthAdjust="spacing" textLength="140" x="26" y="893.2695">name : String</text><text fill="#000000" font-family="sans-serif" font-size="22" lengthAdjust="spacing" textLength="128" x="26" y="919.1797">avatar : Link</text><line style="stroke:#A80036;stroke-width:3.0;" x1="16" x2="176" y1="931.8203" y2="931.8203"/><text fill="#000000" font-family="sans-serif" font-size="22" lengthAdjust="spacing" textLength="82" x="26" y="961.0898">create()</text><text fill="#000000" font-family="sans-serif" font-size="22" lengthAdjust="spacing" textLength="90" x="26" y="987">update()</text><text fill="#000000" font-family="sans-serif" font-size="22" lengthAdjust="spacing" textLength="80" x="26" y="1012.9102">delete()</text><!--MD5=[b34797a66dc35cbf1d65f7e3ca75530e]
class Task--><rect codeLine="25" fill="#FEFECE" filter="url(#f4krfeu53d4wc)" height="277.3711" id="Task" style="stroke:#A80036;stroke-width:3.0;" width="228" x="270" y="368"/><ellipse cx="348.6" cy="400" fill="#ADD1B2" rx="22" ry="22" style="stroke:#A80036;stroke-width:2.0;"/><path d="M353.5463,412.2861 Q352.3842,412.8838 351.1059,413.1826 Q349.8275,413.4814 348.4164,413.4814 Q343.4027,413.4814 340.7631,410.1777 Q338.1234,406.874 338.1234,400.6318 Q338.1234,394.373 340.7631,391.0693 Q343.4027,387.7656 348.4164,387.7656 Q349.8275,387.7656 351.1225,388.0645 Q352.4174,388.3633 353.5463,388.9609 L353.5463,394.4063 Q352.2846,393.2441 351.0976,392.7046 Q349.9105,392.165 348.6488,392.165 Q345.9594,392.165 344.5897,394.2983 Q343.2201,396.4316 343.2201,400.6318 Q343.2201,404.8154 344.5897,406.9487 Q345.9594,409.082 348.6488,409.082 Q349.9105,409.082 351.0976,408.5425 Q352.2846,408.0029 353.5463,406.8408 Z " fill="#000000"/><text fill="#000000" font-family="sans-serif" font-size="24" lengthAdjust="spacing" textLength="56" x="387.4" y="409.0703">Task</text><line style="stroke:#A80036;stroke-width:3.0;" x1="272" x2="496" y1="432" y2="432"/><text fill="#000000" font-family="sans-serif" font-size="22" lengthAdjust="spacing" textLength="140" x="282" y="461.2695">name : String</text><text fill="#000000" font-family="sans-serif" font-size="22" lengthAdjust="spacing" textLength="172" x="282" y="487.1797">created at : Date</text><text fill="#000000" font-family="sans-serif" font-size="22" lengthAdjust="spacing" textLength="192" x="282" y="513.0898">assigned to : User</text><text fill="#000000" font-family="sans-serif" font-size="22" lengthAdjust="spacing" textLength="204" x="282" y="539">description : String</text><line style="stroke:#A80036;stroke-width:3.0;" x1="272" x2="496" y1="551.6406" y2="551.6406"/><text fill="#000000" font-family="sans-serif" font-size="22" lengthAdjust="spacing" textLength="82" x="282" y="580.9102">create()</text><text fill="#000000" font-family="sans-serif" font-size="22" lengthAdjust="spacing" textLength="90" x="282" y="606.8203">update()</text><text fill="#000000" font-family="sans-serif" font-size="22" lengthAdjust="spacing" textLength="80" x="282" y="632.7305">delete()</text><!--MD5=[f5a5fb38a491afdb60656b0cb210e8f1]
link Board to User--><path codeLine="4" d="M114.04,214.34 C98.28,260.28 81.84,316.16 74,368 C52.66,509.16 64.22,673.14 77.26,783.66 " fill="none" id="Board-to-User" style="stroke:#A80036;stroke-width:2.0;"/><line style="stroke:#A80036;stroke-width:2.0;" x1="77.2858" x2="91.1138" y1="783.6749" y2="798.1243"/><line style="stroke:#A80036;stroke-width:2.0;" x1="77.2858" x2="67.2862" y1="783.6749" y2="800.9957"/><line style="stroke:#A80036;stroke-width:2.0;" x1="77.2858" x2="79.2" y1="783.6749" y2="799.56"/><line style="stroke:#A80036;stroke-width:2.0;" x1="84.7498" x2="68.8647" y1="778.7465" y2="780.6608"/><polygon fill="#000000" points="84.6447,497.3313,77.6128,515.0049,89.3441,515.7628,84.6447,497.3313" style="stroke:#000000;stroke-width:2.0;"/><text fill="#000000" font-family="sans-serif" font-size="26" lengthAdjust="spacing" textLength="132" x="102" y="517.1367">Belongs to</text><!--MD5=[9cafe07b1d2a1fbad6256466d7472014]
link Board to Task--><path codeLine="5" d="M210.54,214.16 C235.84,256.56 266,307.14 294.02,354.14 " fill="none" id="Board-to-Task" style="stroke:#A80036;stroke-width:2.0;"/><line style="stroke:#A80036;stroke-width:2.0;" x1="294.0617" x2="312.565" y1="354.2" y2="361.7913"/><line style="stroke:#A80036;stroke-width:2.0;" x1="294.0617" x2="291.955" y1="354.2" y2="374.0887"/><line style="stroke:#A80036;stroke-width:2.0;" x1="294.0617" x2="302.26" y1="354.2" y2="367.94"/><line style="stroke:#A80036;stroke-width:2.0;" x1="298.8821" x2="285.1421" y1="346.6658" y2="354.8641"/><polygon fill="#000000" points="264.878,282.7219,269.0955,301.2696,279.1921,295.2483,264.878,282.7219" style="stroke:#000000;stroke-width:2.0;"/><text fill="#000000" font-family="sans-serif" font-size="26" lengthAdjust="spacing" textLength="132" x="288" y="301.1367">Belongs to</text><!--MD5=[59f436a63fd120c4f40f9b73b6fc58b5]
link Task to User--><path codeLine="6" d="M285.7,646.22 C249.84,696.26 209.78,752.18 175.74,799.7 " fill="none" id="Task-User" style="stroke:#A80036;stroke-width:2.0;"/><polygon fill="#000000" points="244.176,731.4396,259.4898,720.1573,249.9336,713.3108,244.176,731.4396" style="stroke:#000000;stroke-width:2.0;"/><text fill="#000000" font-family="sans-serif" font-size="26" lengthAdjust="spacing" textLength="150" x="268" y="733.1367">Assigned to</text><!--MD5=[7c8b0dc2b0c9db2608f1f5d0a8887e8e]
@startuml
'https://plantuml.com/class-diagram


Board - -|{ User : Belongs to <
Board - -|{ Task : Belongs to <
Task - - User : Assigned to >



class Board {
name : String
create()
update()
delete()
}

class User {
name : String
avatar : Link
create()
update()
delete()
}

class Task {
name : String
created at : Date
assigned to : User
description : String
create()
update()
delete()
}

@enduml

@startuml


Board - -|{ User : Belongs to <
Board - -|{ Task : Belongs to <
Task - - User : Assigned to >



class Board {
name : String
create()
update()
delete()
}

class User {
name : String
avatar : Link
create()
update()
delete()
}

class Task {
name : String
created at : Date
assigned to : User
description : String
create()
update()
delete()
}

@enduml

PlantUML version 1.2021.2(Sun Mar 07 11:10:27 GMT 2021)
(GPL source distribution)
Java Runtime: OpenJDK Runtime Environment
JVM: OpenJDK 64-Bit Server VM
Default Encoding: UTF-8
Language: en
Country: GB
--></g></svg>